<?xml version="1.0" encoding="UTF-8" standalone="no"?>
<!-- Created with Inkscape (http://www.inkscape.org/) -->

<svg
   width="115.53988mm"
   height="23.22397mm"
   viewBox="0 0 115.53988 23.22397"
   version="1.1"
   id="svg1"
   xml:space="preserve"
   xmlns="http://www.w3.org/2000/svg"
   xmlns:svg="http://www.w3.org/2000/svg"><defs
     id="defs1" /><g
     id="layer1"
     transform="translate(-82.250864,-810.70591)"><path
       style="fill:#ffffff"
       d="m 92.406596,833.85359 c -4.76007,-0.64388 -8.630099,-4.06427 -9.795173,-8.65713 -1.47988,-5.83386 1.718125,-11.85884 7.348973,-13.84533 1.34764,-0.47543 2.30511,-0.6329 3.86828,-0.63621 2.05024,-0.004 3.34511,0.29889 5.207,1.21937 2.718694,1.34406 4.833844,3.7757 5.792854,6.65961 0.24234,0.72877 0.50541,1.85668 0.52412,2.24722 0.005,0.10674 0.0795,-0.16147 0.16523,-0.59603 0.83894,-4.25092 3.7525,-7.62364 7.72825,-8.94618 1.41308,-0.47007 2.13316,-0.58558 3.65422,-0.5862 1.46255,-5.9e-4 2.29121,0.12004 3.54452,0.51596 3.85048,1.21636 6.86186,4.48101 7.75714,8.40952 0.10081,0.44238 0.21467,0.91863 0.25301,1.05833 l 0.0697,0.254 0.009,-0.26613 c 0.0147,-0.4513 0.4834,-2.15225 0.79467,-2.88366 0.65211,-1.53228 1.44012,-2.66645 2.69711,-3.88187 1.59387,-1.54117 3.48504,-2.54434 5.68342,-3.01478 1.14475,-0.24496 3.28962,-0.26644 4.40297,-0.0441 4.8413,0.96687 8.59278,4.8031 9.32576,9.53642 l 0.0977,0.63123 0.18839,-0.95486 c 0.92626,-4.69457 4.52552,-8.25977 9.29891,-9.21091 1.03495,-0.20622 3.1866,-0.20564 4.18033,10e-4 2.4002,0.49941 4.40014,1.56441 6.05593,3.22486 1.69676,1.70152 2.78986,3.76539 3.22319,6.08561 l 0.15504,0.83016 0.11038,-0.66156 c 0.37011,-2.21832 1.45677,-4.37184 3.0517,-6.04784 0.9662,-1.01531 1.96094,-1.75028 3.1941,-2.36001 1.8712,-0.92519 3.06936,-1.21006 5.12233,-1.21785 2.51446,-0.01 4.48326,0.57719 6.54714,1.95117 2.76977,1.84391 4.63041,4.89972 5.04337,8.28297 0.73502,6.02167 -3.39685,11.64291 -9.39434,12.78061 -5.03365,0.95487 -10.16939,-1.59515 -12.47535,-6.1943 -0.56793,-1.13272 -1.12679,-2.95048 -1.1583,-3.76757 -0.004,-0.10674 -0.0961,0.22503 -0.20442,0.73726 -0.51341,2.42807 -1.53073,4.33146 -3.21416,6.01365 -1.65603,1.65481 -3.51952,2.66096 -5.89739,3.18417 -1.14514,0.25197 -3.19208,0.2728 -4.33955,0.0442 -4.73296,-0.94308 -8.33793,-4.484 -9.28212,-9.11722 -0.0991,-0.48614 -0.19157,-0.89534 -0.20555,-0.90932 -0.014,-0.014 -0.0517,0.17587 -0.0837,0.4219 -0.1639,1.25749 -0.72166,2.81239 -1.45247,4.04913 -1.70252,2.88115 -4.56894,4.90136 -7.88107,5.55448 -1.0267,0.20245 -3.17942,0.20245 -4.20612,0 -2.26829,-0.44728 -4.33917,-1.53381 -5.96768,-3.13107 -1.82133,-1.78637 -2.91287,-3.85306 -3.3525,-6.3475 l -0.10734,-0.60905 -0.0635,0.33867 c -0.43799,2.33508 -1.18318,4.00356 -2.53409,5.67379 -1.704,2.10678 -4.08962,3.52023 -6.87981,4.07619 -1.14747,0.22864 -3.19441,0.20781 -4.33955,-0.0442 -2.38072,-0.52384 -4.24896,-1.53274 -5.89504,-3.18349 -1.69812,-1.70293 -2.72128,-3.62024 -3.20951,-6.01433 l -0.18993,-0.93133 -0.0615,0.46566 c -0.15758,1.19303 -0.71374,2.82519 -1.34152,3.937 -1.68764,2.98881 -4.574064,5.07124 -7.981624,5.75842 -0.83074,0.16753 -2.74601,0.23027 -3.58108,0.11732 z m 22.080754,-9.72807 v -6.35 h -0.80107 -0.80107 l -0.081,0.3175 c -0.0445,0.17463 -0.10656,0.44304 -0.13783,0.59648 l -0.0568,0.27898 -0.3658,-0.33718 c -0.76148,-0.70191 -1.72676,-1.02625 -3.0447,-1.02304 -0.92492,0.002 -1.38088,0.0813 -1.99678,0.34627 l -0.40001,0.17208 -0.21783,0.77696 c -0.3689,1.31579 -0.43722,1.87113 -0.42891,3.48628 0.008,1.6141 0.0953,2.23648 0.49618,3.55085 0.23623,0.77446 0.24706,0.78405 1.16558,1.03136 0.76164,0.20507 2.13764,0.18351 2.86617,-0.0449 0.52386,-0.16425 1.51303,-0.7256 1.63967,-0.93051 0.18076,-0.29247 0.21689,0.0729 0.21689,2.19288 v 2.286 h 0.97366 0.97367 z m -6.06878,1.28703 c -1.33814,-0.47686 -1.95586,-1.57249 -1.87172,-3.31983 0.0483,-1.00314 0.32355,-1.68702 0.88859,-2.20786 0.62959,-0.58033 1.01893,-0.7124 2.09891,-0.71196 0.8195,3.4e-4 0.98217,0.0255 1.35467,0.20965 0.88934,0.43963 1.40741,1.20289 1.58298,2.33217 0.11856,0.76263 0.004,1.68149 -0.28833,2.30277 -0.24428,0.52003 -0.81494,1.08905 -1.32036,1.31656 -0.56538,0.2545 -1.83634,0.29531 -2.44474,0.0785 z m 38.15717,4.80949 c 1.57551,-0.45182 2.53733,-1.40096 2.7867,-2.74997 0.0593,-0.32072 0.0922,-2.14193 0.0922,-5.09777 v -4.59878 h -0.83707 -0.83708 l -0.10385,0.55033 c -0.0571,0.30269 -0.13172,0.55034 -0.16579,0.55034 -0.0341,0 -0.13053,-0.0758 -0.21433,-0.16837 -0.2814,-0.31094 -0.97053,-0.69501 -1.61328,-0.89912 -0.5096,-0.16183 -0.81992,-0.20226 -1.54465,-0.20126 -1.51286,0.002 -2.57984,0.37149 -3.44999,1.19445 -0.82192,0.77734 -1.22514,1.85259 -1.21849,3.2493 0.0134,2.81482 1.90927,4.48062 4.93812,4.33885 1.20636,-0.0565 2.13495,-0.39179 2.82391,-1.01974 l 0.1905,-0.17363 -0.002,1.05193 c -0.001,0.83696 -0.0336,1.12184 -0.15729,1.39409 -0.30272,0.66644 -1.01021,1.08183 -2.11739,1.24321 -1.32242,0.19274 -2.65716,-0.19442 -3.16779,-0.91885 l -0.26094,-0.3702 h -1.04665 -1.04665 l 0.3096,0.58918 c 0.60272,1.14697 1.77013,1.93123 3.27657,2.20118 0.75579,0.13543 2.63964,0.043 3.36545,-0.16517 z m -3.13287,-5.45504 c -0.83356,-0.23026 -1.3466,-0.64497 -1.70927,-1.38165 -0.25307,-0.51408 -0.27647,-0.62956 -0.27812,-1.37272 -0.002,-0.74797 0.02,-0.85562 0.27633,-1.37649 0.3025,-0.61462 0.67086,-0.96378 1.34498,-1.2749 0.34872,-0.16094 0.55219,-0.18849 1.38256,-0.18715 0.89097,10e-4 1.01468,0.0216 1.45647,0.23708 0.63712,0.31078 1.18118,0.91946 1.3763,1.5398 0.22284,0.70849 0.15465,1.8817 -0.1427,2.45488 -0.22181,0.42758 -0.59268,0.82409 -1.01568,1.08592 -0.58646,0.36301 -1.89032,0.49637 -2.69087,0.27523 z m 27.43726,5.51802 c 0.14586,-0.17484 0.15915,-0.36277 0.16174,-2.286 0.002,-1.15252 0.0296,-2.0955 0.0623,-2.0955 0.0327,0 0.17559,0.11181 0.3175,0.24846 0.29261,0.28176 1.17501,0.76754 1.39419,0.76754 0.10576,0 0.19904,-0.16703 0.34281,-0.61383 0.10863,-0.33761 0.21087,-0.63885 0.22721,-0.66942 0.0163,-0.0306 -0.17428,-0.11975 -0.42359,-0.19817 -0.70876,-0.22293 -1.23264,-0.67071 -1.57892,-1.34956 -0.29566,-0.57964 -0.29633,-0.58354 -0.29633,-1.73248 0,-1.06555 0.0166,-1.18686 0.22181,-1.62453 0.122,-0.26014 0.36575,-0.61693 0.54168,-0.79286 0.31979,-0.31979 1.05698,-0.72143 1.32701,-0.72299 0.0787,-4.5e-4 0.16728,-0.0398 0.19674,-0.0875 0.0559,-0.0904 -0.26616,-1.16865 -0.38897,-1.30234 -0.1159,-0.12618 -1.0119,0.26609 -1.53855,0.67358 -0.26782,0.20722 -0.50181,0.37677 -0.51998,0.37677 -0.0182,0 -0.0822,-0.24765 -0.14242,-0.55034 l -0.10939,-0.55033 h -0.7888 -0.7888 v 6.35 6.35 h 0.81193 c 0.73847,0 0.82631,-0.0172 0.97085,-0.1905 z m 6.66359,-3.1543 c 1.62014,-0.38199 2.84594,-1.61265 3.24632,-3.2592 0.16484,-0.67788 0.14164,-2.21206 -0.0429,-2.83633 -0.32807,-1.10991 -1.00976,-2.03988 -1.86093,-2.5387 -0.59588,-0.3492 -1.40266,-0.62248 -2.02638,-0.68638 l -0.54222,-0.0556 -0.26837,0.74169 c -0.14761,0.40793 -0.2577,0.74887 -0.24464,0.75764 0.0131,0.009 0.26551,0.0591 0.56101,0.11183 1.03874,0.18538 1.79004,0.73615 2.20158,1.61399 0.20542,0.43816 0.22448,0.56885 0.22448,1.53893 0,1.0263 -0.009,1.07806 -0.2769,1.62259 -0.1523,0.30937 -0.41726,0.68571 -0.5888,0.83633 -0.41055,0.36046 -1.09174,0.6661 -1.62543,0.72931 -0.27714,0.0328 -0.42987,0.0912 -0.42987,0.16419 0,0.11183 0.37327,1.15296 0.46875,1.30745 0.0718,0.11621 0.59712,0.0954 1.20429,-0.0478 z m -55.94692,-0.18361 c 0.6305,-0.17401 1.05259,-0.40076 1.48094,-0.7956 0.41011,-0.37803 0.46894,-0.39904 0.46894,-0.16749 0,0.0908 0.0413,0.35754 0.0917,0.59267 l 0.0917,0.4275 h 0.79732 0.79731 v -4.61434 -4.61433 h -0.97366 -0.97367 v 2.93234 c 0,2.04708 -0.0309,3.03756 -0.10252,3.28084 -0.067,0.22784 -0.26776,0.51492 -0.57978,0.82921 -0.60485,0.60923 -1.12271,0.78523 -2.1463,0.72941 -0.97222,-0.053 -1.54079,-0.38258 -1.94165,-1.12547 -0.17645,-0.32699 -0.18361,-0.44733 -0.20777,-3.4925 l -0.025,-3.15383 h -0.96981 -0.96982 v 3.11488 c 0,2.50557 0.025,3.21094 0.12792,3.60599 0.52219,2.00482 2.73922,3.0841 5.0342,2.45072 z m 12.78501,0.13701 c 0.39215,-0.0492 0.9436,-0.167 1.22544,-0.26183 0.71361,-0.24012 1.60064,-0.8524 1.9886,-1.37266 0.29949,-0.40163 0.59817,-0.91271 0.59817,-1.02357 0,-0.0256 -0.44927,-0.0465 -0.99837,-0.0465 h -0.99838 l -0.36751,0.37448 c -0.20214,0.20596 -0.6006,0.48077 -0.88547,0.61069 -0.45927,0.20945 -0.61385,0.2358 -1.36461,0.23261 -0.67756,-0.003 -0.94712,-0.0427 -1.34966,-0.19949 -0.88139,-0.34324 -1.48257,-1.1221 -1.68396,-2.18162 l -0.0521,-0.27433 3.95508,-0.022 3.95508,-0.022 0.0767,-0.41997 c 0.20596,-1.12756 -0.38575,-2.70389 -1.34487,-3.58275 -0.99915,-0.91554 -2.04756,-1.28556 -3.64853,-1.28769 -1.51483,-0.002 -2.81926,0.43001 -3.52781,1.16842 -0.35701,0.37205 -0.51607,0.97597 -0.6576,2.49693 -0.14665,1.57577 0.17367,4.12048 0.57604,4.57629 0.491,0.5562 1.70902,1.08893 2.81778,1.23241 0.78463,0.10154 0.89575,0.10172 1.686,0.003 z m -3.76995,-5.96342 c 0.3482,-1.15698 1.10653,-1.806 2.33241,-1.9962 0.7061,-0.10956 1.48845,-0.007 2.08463,0.27323 0.67309,0.31638 1.47178,1.39696 1.47178,1.99121 0,0.0907 -0.56973,0.11191 -3.00161,0.11191 h -3.00162 z m 32.71261,5.87424 c 0.51134,-0.11005 1.2906,-0.51971 1.67093,-0.87841 0.36479,-0.34404 0.42019,-0.31159 0.50362,0.29499 0.0822,0.59758 0.0906,0.60271 0.93849,0.575 l 0.75484,-0.0247 v -3.429 -3.429 l -0.22525,-0.48049 c -0.44603,-0.95148 -1.31231,-1.61872 -2.44963,-1.8868 -0.71266,-0.16799 -2.3431,-0.17034 -2.98058,-0.004 -1.3235,0.34473 -2.39541,1.25385 -2.72138,2.30809 -0.0588,0.19016 -0.0571,0.1905 0.94455,0.1905 h 1.00345 l 0.15467,-0.26183 c 0.37327,-0.6319 1.53253,-1.01587 2.56503,-0.8496 1.17733,0.18961 1.80414,0.83613 1.80414,1.86087 v 0.41621 l -1.9685,0.0417 c -2.10165,0.0445 -2.5492,0.11468 -3.3638,0.52747 -0.58289,0.29537 -0.94256,0.63327 -1.2339,1.1592 -0.22171,0.40023 -0.24933,0.53039 -0.24828,1.16999 0.001,0.61373 0.0343,0.78278 0.22626,1.14838 0.71267,1.35748 2.59445,1.98878 4.62534,1.55171 z m -1.87072,-1.46025 c -0.72633,-0.20506 -1.12227,-0.73956 -1.05632,-1.42595 0.0452,-0.4701 0.25387,-0.74389 0.78359,-1.02801 0.31165,-0.16717 0.48892,-0.18395 2.2225,-0.21047 l 1.88383,-0.0288 v 0.35055 c 0,0.71103 -0.16798,1.11417 -0.6712,1.61086 -0.30174,0.29782 -0.62439,0.52198 -0.89513,0.6219 -0.55156,0.20356 -1.73281,0.26083 -2.26727,0.10994 z m 23.15394,-1.43034 c 0.0251,-2.9649 0.0323,-3.08086 0.21036,-3.4136 0.23371,-0.43663 0.78255,-0.93472 1.28694,-1.16794 0.3225,-0.14911 0.54779,-0.18058 1.28036,-0.1788 0.76363,0.002 0.94273,0.03 1.27,0.19982 0.49208,0.25528 0.8171,0.56115 1.04492,0.98336 0.17646,0.32701 0.18361,0.44728 0.20778,3.49507 l 0.025,3.15641 1.0333,-0.0237 1.0333,-0.0237 0.023,-2.62467 c 0.0341,-3.89616 -0.08,-4.5262 -0.99431,-5.49297 -0.78833,-0.83354 -1.84613,-1.23803 -3.23767,-1.23803 -1.15347,0 -2.1684,0.34178 -2.73364,0.92055 -0.4619,0.47295 -0.46567,0.4583 -0.46567,-1.80955 v -2.07433 h -1.016 -1.016 v 6.18066 6.18067 h 1.01117 1.01117 z m -94.249514,-0.0847 c 8.2e-4,-2.94755 0.003,-2.98975 0.19825,-3.40845 0.22851,-0.4907 0.68672,-0.92429 1.23595,-1.16954 0.46485,-0.20757 1.58251,-0.28786 2.09196,-0.15027 0.60129,0.16239 1.14452,0.58881 1.40484,1.10277 l 0.23284,0.45968 v 3.07516 3.07515 h 1.016 1.016 v -3.12513 c 0,-3.52389 -0.0314,-3.75094 -0.64122,-4.63636 -0.96792,-1.40538 -3.28626,-1.99105 -5.1384,-1.29808 -0.48345,0.18089 -1.33238,0.77569 -1.33238,0.93354 0,0.0455 -0.0571,0.0827 -0.127,0.0827 -0.0699,0 -0.127,-0.0553 -0.127,-0.12283 0,-0.0676 -0.0413,-0.31521 -0.0917,-0.55033 l -0.0917,-0.4275 h -0.83965 -0.83965 v 4.572 4.572 h 1.016 1.016 z m 11.090504,-1.5875 v -4.572 h -0.97366 -0.973674 v 4.572 4.572 h 0.973674 0.97366 z m 53.086,1.524 0.0423,-3.00567 0.23482,-0.39946 c 0.45691,-0.77729 1.23826,-1.13249 2.68439,-1.22032 l 0.93312,-0.0567 v -0.75888 -0.75888 l -1.16862,0.0321 c -1.11846,0.0307 -1.19284,0.044 -1.73266,0.30976 -0.31905,0.15707 -0.67425,0.41139 -0.8178,0.58555 -0.28203,0.34215 -0.2802,0.34394 -0.43059,-0.42136 l -0.0957,-0.48683 h -0.54035 -0.54036 l -0.25797,0.80535 -0.25798,0.80534 v 2.91898 2.91897 l 0.26357,0.82652 c 0.14497,0.45458 0.28152,0.85663 0.30345,0.89344 0.0219,0.0368 0.33196,0.0559 0.68893,0.0423 l 0.64905,-0.0246 z m -50.22236,0.9525 c 0.26392,-1.161 0.2818,-1.32752 0.27861,-2.59541 -0.003,-1.16632 -0.13802,-2.20215 -0.37734,-2.89341 l -0.11007,-0.31794 -0.21728,0.2893 c -1.00645,1.34002 -1.20473,3.65526 -0.45355,5.29606 0.23859,0.52114 0.53168,0.96223 0.63937,0.96223 0.0395,0 0.14763,-0.33337 0.24026,-0.74083 z m 23.2633,-0.88275 c 0.18503,-1.23226 0.13032,-3.37132 -0.10664,-4.16956 -0.0448,-0.15109 -0.0566,-0.14804 -0.16352,0.0423 -0.45302,0.80681 -0.64757,2.38515 -0.43229,3.50714 0.13161,0.68592 0.44769,1.54572 0.53584,1.45757 0.0264,-0.0264 0.10141,-0.40331 0.16661,-0.83748 z m -26.46238,-7.88025 c 0.26395,-0.1331 0.42655,-0.29041 0.53965,-0.52209 0.14699,-0.30111 0.15088,-0.36311 0.0423,-0.67457 -0.14343,-0.41155 -0.53056,-0.69824 -1.04753,-0.77577 -0.703964,-0.10556 -1.484374,0.45292 -1.484374,1.06226 0,0.34321 0.31033,0.75768 0.69961,0.9344 0.470904,0.21376 0.790654,0.20756 1.250314,-0.0242 z"
       id="path42" /></g><script
     id="mesh_polyfill"
     type="text/javascript">
!function(){const t=&quot;http://www.w3.org/2000/svg&quot;,e=&quot;http://www.w3.org/1999/xlink&quot;,s=&quot;http://www.w3.org/1999/xhtml&quot;,r=2;if(document.createElementNS(t,&quot;meshgradient&quot;).x)return;const n=(t,e,s,r)=&gt;{let n=new x(.5*(e.x+s.x),.5*(e.y+s.y)),o=new x(.5*(t.x+e.x),.5*(t.y+e.y)),i=new x(.5*(s.x+r.x),.5*(s.y+r.y)),a=new x(.5*(n.x+o.x),.5*(n.y+o.y)),h=new x(.5*(n.x+i.x),.5*(n.y+i.y)),l=new x(.5*(a.x+h.x),.5*(a.y+h.y));return[[t,o,a,l],[l,h,i,r]]},o=t=&gt;{let e=t[0].distSquared(t[1]),s=t[2].distSquared(t[3]),r=.25*t[0].distSquared(t[2]),n=.25*t[1].distSquared(t[3]),o=e&gt;s?e:s,i=r&gt;n?r:n;return 18*(o&gt;i?o:i)},i=(t,e)=&gt;Math.sqrt(t.distSquared(e)),a=(t,e)=&gt;t.scale(2/3).add(e.scale(1/3)),h=t=&gt;{let e,s,r,n,o,i,a,h=new g;return t.match(/(\w+\(\s*[^)]+\))+/g).forEach(t=&gt;{let l=t.match(/[\w.-]+/g),d=l.shift();switch(d){case&quot;translate&quot;:2===l.length?e=new g(1,0,0,1,l[0],l[1]):(console.error(&quot;mesh.js: translate does not have 2 arguments!&quot;),e=new g(1,0,0,1,0,0)),h=h.append(e);break;case&quot;scale&quot;:1===l.length?s=new g(l[0],0,0,l[0],0,0):2===l.length?s=new g(l[0],0,0,l[1],0,0):(console.error(&quot;mesh.js: scale does not have 1 or 2 arguments!&quot;),s=new g(1,0,0,1,0,0)),h=h.append(s);break;case&quot;rotate&quot;:if(3===l.length&amp;&amp;(e=new g(1,0,0,1,l[1],l[2]),h=h.append(e)),l[0]){r=l[0]*Math.PI/180;let t=Math.cos(r),e=Math.sin(r);Math.abs(t)&lt;1e-16&amp;&amp;(t=0),Math.abs(e)&lt;1e-16&amp;&amp;(e=0),a=new g(t,e,-e,t,0,0),h=h.append(a)}else console.error(&quot;math.js: No argument to rotate transform!&quot;);3===l.length&amp;&amp;(e=new g(1,0,0,1,-l[1],-l[2]),h=h.append(e));break;case&quot;skewX&quot;:l[0]?(r=l[0]*Math.PI/180,n=Math.tan(r),o=new g(1,0,n,1,0,0),h=h.append(o)):console.error(&quot;math.js: No argument to skewX transform!&quot;);break;case&quot;skewY&quot;:l[0]?(r=l[0]*Math.PI/180,n=Math.tan(r),i=new g(1,n,0,1,0,0),h=h.append(i)):console.error(&quot;math.js: No argument to skewY transform!&quot;);break;case&quot;matrix&quot;:6===l.length?h=h.append(new g(...l)):console.error(&quot;math.js: Incorrect number of arguments for matrix!&quot;);break;default:console.error(&quot;mesh.js: Unhandled transform type: &quot;+d)}}),h},l=t=&gt;{let e=[],s=t.split(/[ ,]+/);for(let t=0,r=s.length-1;t&lt;r;t+=2)e.push(new x(parseFloat(s[t]),parseFloat(s[t+1])));return e},d=(t,e)=&gt;{for(let s in e)t.setAttribute(s,e[s])},c=(t,e,s,r,n)=&gt;{let o,i,a=[0,0,0,0];for(let h=0;h&lt;3;++h)e[h]&lt;t[h]&amp;&amp;e[h]&lt;s[h]||t[h]&lt;e[h]&amp;&amp;s[h]&lt;e[h]?a[h]=0:(a[h]=.5*((e[h]-t[h])/r+(s[h]-e[h])/n),o=Math.abs(3*(e[h]-t[h])/r),i=Math.abs(3*(s[h]-e[h])/n),a[h]&gt;o?a[h]=o:a[h]&gt;i&amp;&amp;(a[h]=i));return a},u=[[1,0,0,0,0,0,0,0,0,0,0,0,0,0,0,0],[0,0,0,0,1,0,0,0,0,0,0,0,0,0,0,0],[-3,3,0,0,-2,-1,0,0,0,0,0,0,0,0,0,0],[2,-2,0,0,1,1,0,0,0,0,0,0,0,0,0,0],[0,0,0,0,0,0,0,0,1,0,0,0,0,0,0,0],[0,0,0,0,0,0,0,0,0,0,0,0,1,0,0,0],[0,0,0,0,0,0,0,0,-3,3,0,0,-2,-1,0,0],[0,0,0,0,0,0,0,0,2,-2,0,0,1,1,0,0],[-3,0,3,0,0,0,0,0,-2,0,-1,0,0,0,0,0],[0,0,0,0,-3,0,3,0,0,0,0,0,-2,0,-1,0],[9,-9,-9,9,6,3,-6,-3,6,-6,3,-3,4,2,2,1],[-6,6,6,-6,-3,-3,3,3,-4,4,-2,2,-2,-2,-1,-1],[2,0,-2,0,0,0,0,0,1,0,1,0,0,0,0,0],[0,0,0,0,2,0,-2,0,0,0,0,0,1,0,1,0],[-6,6,6,-6,-4,-2,4,2,-3,3,-3,3,-2,-1,-2,-1],[4,-4,-4,4,2,2,-2,-2,2,-2,2,-2,1,1,1,1]],f=t=&gt;{let e=[];for(let s=0;s&lt;16;++s){e[s]=0;for(let r=0;r&lt;16;++r)e[s]+=u[s][r]*t[r]}return e},p=(t,e,s)=&gt;{const r=e*e,n=s*s,o=e*e*e,i=s*s*s;return t[0]+t[1]*e+t[2]*r+t[3]*o+t[4]*s+t[5]*s*e+t[6]*s*r+t[7]*s*o+t[8]*n+t[9]*n*e+t[10]*n*r+t[11]*n*o+t[12]*i+t[13]*i*e+t[14]*i*r+t[15]*i*o},y=t=&gt;{let e=[],s=[],r=[];for(let s=0;s&lt;4;++s)e[s]=[],e[s][0]=n(t[0][s],t[1][s],t[2][s],t[3][s]),e[s][1]=[],e[s][1].push(...n(...e[s][0][0])),e[s][1].push(...n(...e[s][0][1])),e[s][2]=[],e[s][2].push(...n(...e[s][1][0])),e[s][2].push(...n(...e[s][1][1])),e[s][2].push(...n(...e[s][1][2])),e[s][2].push(...n(...e[s][1][3]));for(let t=0;t&lt;8;++t){s[t]=[];for(let r=0;r&lt;4;++r)s[t][r]=[],s[t][r][0]=n(e[0][2][t][r],e[1][2][t][r],e[2][2][t][r],e[3][2][t][r]),s[t][r][1]=[],s[t][r][1].push(...n(...s[t][r][0][0])),s[t][r][1].push(...n(...s[t][r][0][1])),s[t][r][2]=[],s[t][r][2].push(...n(...s[t][r][1][0])),s[t][r][2].push(...n(...s[t][r][1][1])),s[t][r][2].push(...n(...s[t][r][1][2])),s[t][r][2].push(...n(...s[t][r][1][3]))}for(let t=0;t&lt;8;++t){r[t]=[];for(let e=0;e&lt;8;++e)r[t][e]=[],r[t][e][0]=s[t][0][2][e],r[t][e][1]=s[t][1][2][e],r[t][e][2]=s[t][2][2][e],r[t][e][3]=s[t][3][2][e]}return r};class x{constructor(t,e){this.x=t||0,this.y=e||0}toString(){return`(x=${this.x}, y=${this.y})`}clone(){return new x(this.x,this.y)}add(t){return new x(this.x+t.x,this.y+t.y)}scale(t){return void 0===t.x?new x(this.x*t,this.y*t):new x(this.x*t.x,this.y*t.y)}distSquared(t){let e=this.x-t.x,s=this.y-t.y;return e*e+s*s}transform(t){let e=this.x*t.a+this.y*t.c+t.e,s=this.x*t.b+this.y*t.d+t.f;return new x(e,s)}}class g{constructor(t,e,s,r,n,o){void 0===t?(this.a=1,this.b=0,this.c=0,this.d=1,this.e=0,this.f=0):(this.a=t,this.b=e,this.c=s,this.d=r,this.e=n,this.f=o)}toString(){return`affine: ${this.a} ${this.c} ${this.e} \n       ${this.b} ${this.d} ${this.f}`}append(t){t instanceof g||console.error(&quot;mesh.js: argument to Affine.append is not affine!&quot;);let e=this.a*t.a+this.c*t.b,s=this.b*t.a+this.d*t.b,r=this.a*t.c+this.c*t.d,n=this.b*t.c+this.d*t.d,o=this.a*t.e+this.c*t.f+this.e,i=this.b*t.e+this.d*t.f+this.f;return new g(e,s,r,n,o,i)}}class w{constructor(t,e){this.nodes=t,this.colors=e}paintCurve(t,e){if(o(this.nodes)&gt;r){const s=n(...this.nodes);let r=[[],[]],o=[[],[]];for(let t=0;t&lt;4;++t)r[0][t]=this.colors[0][t],r[1][t]=(this.colors[0][t]+this.colors[1][t])/2,o[0][t]=r[1][t],o[1][t]=this.colors[1][t];let i=new w(s[0],r),a=new w(s[1],o);i.paintCurve(t,e),a.paintCurve(t,e)}else{let s=Math.round(this.nodes[0].x);if(s&gt;=0&amp;&amp;s&lt;e){let r=4*(~~this.nodes[0].y*e+s);t[r]=Math.round(this.colors[0][0]),t[r+1]=Math.round(this.colors[0][1]),t[r+2]=Math.round(this.colors[0][2]),t[r+3]=Math.round(this.colors[0][3])}}}}class m{constructor(t,e){this.nodes=t,this.colors=e}split(){let t=[[],[],[],[]],e=[[],[],[],[]],s=[[[],[]],[[],[]]],r=[[[],[]],[[],[]]];for(let s=0;s&lt;4;++s){const r=n(this.nodes[0][s],this.nodes[1][s],this.nodes[2][s],this.nodes[3][s]);t[0][s]=r[0][0],t[1][s]=r[0][1],t[2][s]=r[0][2],t[3][s]=r[0][3],e[0][s]=r[1][0],e[1][s]=r[1][1],e[2][s]=r[1][2],e[3][s]=r[1][3]}for(let t=0;t&lt;4;++t)s[0][0][t]=this.colors[0][0][t],s[0][1][t]=this.colors[0][1][t],s[1][0][t]=(this.colors[0][0][t]+this.colors[1][0][t])/2,s[1][1][t]=(this.colors[0][1][t]+this.colors[1][1][t])/2,r[0][0][t]=s[1][0][t],r[0][1][t]=s[1][1][t],r[1][0][t]=this.colors[1][0][t],r[1][1][t]=this.colors[1][1][t];return[new m(t,s),new m(e,r)]}paint(t,e){let s,n=!1;for(let t=0;t&lt;4;++t)if((s=o([this.nodes[0][t],this.nodes[1][t],this.nodes[2][t],this.nodes[3][t]]))&gt;r){n=!0;break}if(n){let s=this.split();s[0].paint(t,e),s[1].paint(t,e)}else{new w([...this.nodes[0]],[...this.colors[0]]).paintCurve(t,e)}}}class b{constructor(t){this.readMesh(t),this.type=t.getAttribute(&quot;type&quot;)||&quot;bilinear&quot;}readMesh(t){let e=[[]],s=[[]],r=Number(t.getAttribute(&quot;x&quot;)),n=Number(t.getAttribute(&quot;y&quot;));e[0][0]=new x(r,n);let o=t.children;for(let t=0,r=o.length;t&lt;r;++t){e[3*t+1]=[],e[3*t+2]=[],e[3*t+3]=[],s[t+1]=[];let r=o[t].children;for(let n=0,o=r.length;n&lt;o;++n){let o=r[n].children;for(let r=0,i=o.length;r&lt;i;++r){let i=r;0!==t&amp;&amp;++i;let h,d=o[r].getAttribute(&quot;path&quot;),c=&quot;l&quot;;null!=d&amp;&amp;(c=(h=d.match(/\s*([lLcC])\s*(.*)/))[1]);let u=l(h[2]);switch(c){case&quot;l&quot;:0===i?(e[3*t][3*n+3]=u[0].add(e[3*t][3*n]),e[3*t][3*n+1]=a(e[3*t][3*n],e[3*t][3*n+3]),e[3*t][3*n+2]=a(e[3*t][3*n+3],e[3*t][3*n])):1===i?(e[3*t+3][3*n+3]=u[0].add(e[3*t][3*n+3]),e[3*t+1][3*n+3]=a(e[3*t][3*n+3],e[3*t+3][3*n+3]),e[3*t+2][3*n+3]=a(e[3*t+3][3*n+3],e[3*t][3*n+3])):2===i?(0===n&amp;&amp;(e[3*t+3][3*n+0]=u[0].add(e[3*t+3][3*n+3])),e[3*t+3][3*n+1]=a(e[3*t+3][3*n],e[3*t+3][3*n+3]),e[3*t+3][3*n+2]=a(e[3*t+3][3*n+3],e[3*t+3][3*n])):(e[3*t+1][3*n]=a(e[3*t][3*n],e[3*t+3][3*n]),e[3*t+2][3*n]=a(e[3*t+3][3*n],e[3*t][3*n]));break;case&quot;L&quot;:0===i?(e[3*t][3*n+3]=u[0],e[3*t][3*n+1]=a(e[3*t][3*n],e[3*t][3*n+3]),e[3*t][3*n+2]=a(e[3*t][3*n+3],e[3*t][3*n])):1===i?(e[3*t+3][3*n+3]=u[0],e[3*t+1][3*n+3]=a(e[3*t][3*n+3],e[3*t+3][3*n+3]),e[3*t+2][3*n+3]=a(e[3*t+3][3*n+3],e[3*t][3*n+3])):2===i?(0===n&amp;&amp;(e[3*t+3][3*n+0]=u[0]),e[3*t+3][3*n+1]=a(e[3*t+3][3*n],e[3*t+3][3*n+3]),e[3*t+3][3*n+2]=a(e[3*t+3][3*n+3],e[3*t+3][3*n])):(e[3*t+1][3*n]=a(e[3*t][3*n],e[3*t+3][3*n]),e[3*t+2][3*n]=a(e[3*t+3][3*n],e[3*t][3*n]));break;case&quot;c&quot;:0===i?(e[3*t][3*n+1]=u[0].add(e[3*t][3*n]),e[3*t][3*n+2]=u[1].add(e[3*t][3*n]),e[3*t][3*n+3]=u[2].add(e[3*t][3*n])):1===i?(e[3*t+1][3*n+3]=u[0].add(e[3*t][3*n+3]),e[3*t+2][3*n+3]=u[1].add(e[3*t][3*n+3]),e[3*t+3][3*n+3]=u[2].add(e[3*t][3*n+3])):2===i?(e[3*t+3][3*n+2]=u[0].add(e[3*t+3][3*n+3]),e[3*t+3][3*n+1]=u[1].add(e[3*t+3][3*n+3]),0===n&amp;&amp;(e[3*t+3][3*n+0]=u[2].add(e[3*t+3][3*n+3]))):(e[3*t+2][3*n]=u[0].add(e[3*t+3][3*n]),e[3*t+1][3*n]=u[1].add(e[3*t+3][3*n]));break;case&quot;C&quot;:0===i?(e[3*t][3*n+1]=u[0],e[3*t][3*n+2]=u[1],e[3*t][3*n+3]=u[2]):1===i?(e[3*t+1][3*n+3]=u[0],e[3*t+2][3*n+3]=u[1],e[3*t+3][3*n+3]=u[2]):2===i?(e[3*t+3][3*n+2]=u[0],e[3*t+3][3*n+1]=u[1],0===n&amp;&amp;(e[3*t+3][3*n+0]=u[2])):(e[3*t+2][3*n]=u[0],e[3*t+1][3*n]=u[1]);break;default:console.error(&quot;mesh.js: &quot;+c+&quot; invalid path type.&quot;)}if(0===t&amp;&amp;0===n||r&gt;0){let e=window.getComputedStyle(o[r]).stopColor.match(/^rgb\s*\(\s*(\d+)\s*,\s*(\d+)\s*,\s*(\d+)\s*\)$/i),a=window.getComputedStyle(o[r]).stopOpacity,h=255;a&amp;&amp;(h=Math.floor(255*a)),e&amp;&amp;(0===i?(s[t][n]=[],s[t][n][0]=Math.floor(e[1]),s[t][n][1]=Math.floor(e[2]),s[t][n][2]=Math.floor(e[3]),s[t][n][3]=h):1===i?(s[t][n+1]=[],s[t][n+1][0]=Math.floor(e[1]),s[t][n+1][1]=Math.floor(e[2]),s[t][n+1][2]=Math.floor(e[3]),s[t][n+1][3]=h):2===i?(s[t+1][n+1]=[],s[t+1][n+1][0]=Math.floor(e[1]),s[t+1][n+1][1]=Math.floor(e[2]),s[t+1][n+1][2]=Math.floor(e[3]),s[t+1][n+1][3]=h):3===i&amp;&amp;(s[t+1][n]=[],s[t+1][n][0]=Math.floor(e[1]),s[t+1][n][1]=Math.floor(e[2]),s[t+1][n][2]=Math.floor(e[3]),s[t+1][n][3]=h))}}e[3*t+1][3*n+1]=new x,e[3*t+1][3*n+2]=new x,e[3*t+2][3*n+1]=new x,e[3*t+2][3*n+2]=new x,e[3*t+1][3*n+1].x=(-4*e[3*t][3*n].x+6*(e[3*t][3*n+1].x+e[3*t+1][3*n].x)+-2*(e[3*t][3*n+3].x+e[3*t+3][3*n].x)+3*(e[3*t+3][3*n+1].x+e[3*t+1][3*n+3].x)+-1*e[3*t+3][3*n+3].x)/9,e[3*t+1][3*n+2].x=(-4*e[3*t][3*n+3].x+6*(e[3*t][3*n+2].x+e[3*t+1][3*n+3].x)+-2*(e[3*t][3*n].x+e[3*t+3][3*n+3].x)+3*(e[3*t+3][3*n+2].x+e[3*t+1][3*n].x)+-1*e[3*t+3][3*n].x)/9,e[3*t+2][3*n+1].x=(-4*e[3*t+3][3*n].x+6*(e[3*t+3][3*n+1].x+e[3*t+2][3*n].x)+-2*(e[3*t+3][3*n+3].x+e[3*t][3*n].x)+3*(e[3*t][3*n+1].x+e[3*t+2][3*n+3].x)+-1*e[3*t][3*n+3].x)/9,e[3*t+2][3*n+2].x=(-4*e[3*t+3][3*n+3].x+6*(e[3*t+3][3*n+2].x+e[3*t+2][3*n+3].x)+-2*(e[3*t+3][3*n].x+e[3*t][3*n+3].x)+3*(e[3*t][3*n+2].x+e[3*t+2][3*n].x)+-1*e[3*t][3*n].x)/9,e[3*t+1][3*n+1].y=(-4*e[3*t][3*n].y+6*(e[3*t][3*n+1].y+e[3*t+1][3*n].y)+-2*(e[3*t][3*n+3].y+e[3*t+3][3*n].y)+3*(e[3*t+3][3*n+1].y+e[3*t+1][3*n+3].y)+-1*e[3*t+3][3*n+3].y)/9,e[3*t+1][3*n+2].y=(-4*e[3*t][3*n+3].y+6*(e[3*t][3*n+2].y+e[3*t+1][3*n+3].y)+-2*(e[3*t][3*n].y+e[3*t+3][3*n+3].y)+3*(e[3*t+3][3*n+2].y+e[3*t+1][3*n].y)+-1*e[3*t+3][3*n].y)/9,e[3*t+2][3*n+1].y=(-4*e[3*t+3][3*n].y+6*(e[3*t+3][3*n+1].y+e[3*t+2][3*n].y)+-2*(e[3*t+3][3*n+3].y+e[3*t][3*n].y)+3*(e[3*t][3*n+1].y+e[3*t+2][3*n+3].y)+-1*e[3*t][3*n+3].y)/9,e[3*t+2][3*n+2].y=(-4*e[3*t+3][3*n+3].y+6*(e[3*t+3][3*n+2].y+e[3*t+2][3*n+3].y)+-2*(e[3*t+3][3*n].y+e[3*t][3*n+3].y)+3*(e[3*t][3*n+2].y+e[3*t+2][3*n].y)+-1*e[3*t][3*n].y)/9}}this.nodes=e,this.colors=s}paintMesh(t,e){let s=(this.nodes.length-1)/3,r=(this.nodes[0].length-1)/3;if(&quot;bilinear&quot;===this.type||s&lt;2||r&lt;2){let n;for(let o=0;o&lt;s;++o)for(let s=0;s&lt;r;++s){let r=[];for(let t=3*o,e=3*o+4;t&lt;e;++t)r.push(this.nodes[t].slice(3*s,3*s+4));let i=[];i.push(this.colors[o].slice(s,s+2)),i.push(this.colors[o+1].slice(s,s+2)),(n=new m(r,i)).paint(t,e)}}else{let n,o,a,h,l,d,u;const x=s,g=r;s++,r++;let w=new Array(s);for(let t=0;t&lt;s;++t){w[t]=new Array(r);for(let e=0;e&lt;r;++e)w[t][e]=[],w[t][e][0]=this.nodes[3*t][3*e],w[t][e][1]=this.colors[t][e]}for(let t=0;t&lt;s;++t)for(let e=0;e&lt;r;++e)0!==t&amp;&amp;t!==x&amp;&amp;(n=i(w[t-1][e][0],w[t][e][0]),o=i(w[t+1][e][0],w[t][e][0]),w[t][e][2]=c(w[t-1][e][1],w[t][e][1],w[t+1][e][1],n,o)),0!==e&amp;&amp;e!==g&amp;&amp;(n=i(w[t][e-1][0],w[t][e][0]),o=i(w[t][e+1][0],w[t][e][0]),w[t][e][3]=c(w[t][e-1][1],w[t][e][1],w[t][e+1][1],n,o));for(let t=0;t&lt;r;++t){w[0][t][2]=[],w[x][t][2]=[];for(let e=0;e&lt;4;++e)n=i(w[1][t][0],w[0][t][0]),o=i(w[x][t][0],w[x-1][t][0]),w[0][t][2][e]=n&gt;0?2*(w[1][t][1][e]-w[0][t][1][e])/n-w[1][t][2][e]:0,w[x][t][2][e]=o&gt;0?2*(w[x][t][1][e]-w[x-1][t][1][e])/o-w[x-1][t][2][e]:0}for(let t=0;t&lt;s;++t){w[t][0][3]=[],w[t][g][3]=[];for(let e=0;e&lt;4;++e)n=i(w[t][1][0],w[t][0][0]),o=i(w[t][g][0],w[t][g-1][0]),w[t][0][3][e]=n&gt;0?2*(w[t][1][1][e]-w[t][0][1][e])/n-w[t][1][3][e]:0,w[t][g][3][e]=o&gt;0?2*(w[t][g][1][e]-w[t][g-1][1][e])/o-w[t][g-1][3][e]:0}for(let s=0;s&lt;x;++s)for(let r=0;r&lt;g;++r){let n=i(w[s][r][0],w[s+1][r][0]),o=i(w[s][r+1][0],w[s+1][r+1][0]),c=i(w[s][r][0],w[s][r+1][0]),x=i(w[s+1][r][0],w[s+1][r+1][0]),g=[[],[],[],[]];for(let t=0;t&lt;4;++t){(d=[])[0]=w[s][r][1][t],d[1]=w[s+1][r][1][t],d[2]=w[s][r+1][1][t],d[3]=w[s+1][r+1][1][t],d[4]=w[s][r][2][t]*n,d[5]=w[s+1][r][2][t]*n,d[6]=w[s][r+1][2][t]*o,d[7]=w[s+1][r+1][2][t]*o,d[8]=w[s][r][3][t]*c,d[9]=w[s+1][r][3][t]*x,d[10]=w[s][r+1][3][t]*c,d[11]=w[s+1][r+1][3][t]*x,d[12]=0,d[13]=0,d[14]=0,d[15]=0,u=f(d);for(let e=0;e&lt;9;++e){g[t][e]=[];for(let s=0;s&lt;9;++s)g[t][e][s]=p(u,e/8,s/8),g[t][e][s]&gt;255?g[t][e][s]=255:g[t][e][s]&lt;0&amp;&amp;(g[t][e][s]=0)}}h=[];for(let t=3*s,e=3*s+4;t&lt;e;++t)h.push(this.nodes[t].slice(3*r,3*r+4));l=y(h);for(let s=0;s&lt;8;++s)for(let r=0;r&lt;8;++r)(a=new m(l[s][r],[[[g[0][s][r],g[1][s][r],g[2][s][r],g[3][s][r]],[g[0][s][r+1],g[1][s][r+1],g[2][s][r+1],g[3][s][r+1]]],[[g[0][s+1][r],g[1][s+1][r],g[2][s+1][r],g[3][s+1][r]],[g[0][s+1][r+1],g[1][s+1][r+1],g[2][s+1][r+1],g[3][s+1][r+1]]]])).paint(t,e)}}}transform(t){if(t instanceof x)for(let e=0,s=this.nodes.length;e&lt;s;++e)for(let s=0,r=this.nodes[0].length;s&lt;r;++s)this.nodes[e][s]=this.nodes[e][s].add(t);else if(t instanceof g)for(let e=0,s=this.nodes.length;e&lt;s;++e)for(let s=0,r=this.nodes[0].length;s&lt;r;++s)this.nodes[e][s]=this.nodes[e][s].transform(t)}scale(t){for(let e=0,s=this.nodes.length;e&lt;s;++e)for(let s=0,r=this.nodes[0].length;s&lt;r;++s)this.nodes[e][s]=this.nodes[e][s].scale(t)}}document.querySelectorAll(&quot;rect,circle,ellipse,path,text&quot;).forEach((r,n)=&gt;{let o=r.getAttribute(&quot;id&quot;);o||(o=&quot;patchjs_shape&quot;+n,r.setAttribute(&quot;id&quot;,o));const i=r.style.fill.match(/^url\(\s*&quot;?\s*#([^\s&quot;]+)&quot;?\s*\)/),a=r.style.stroke.match(/^url\(\s*&quot;?\s*#([^\s&quot;]+)&quot;?\s*\)/);if(i&amp;&amp;i[1]){const a=document.getElementById(i[1]);if(a&amp;&amp;&quot;meshgradient&quot;===a.nodeName){const i=r.getBBox();let l=document.createElementNS(s,&quot;canvas&quot;);d(l,{width:i.width,height:i.height});const c=l.getContext(&quot;2d&quot;);let u=c.createImageData(i.width,i.height);const f=new b(a);&quot;objectBoundingBox&quot;===a.getAttribute(&quot;gradientUnits&quot;)&amp;&amp;f.scale(new x(i.width,i.height));const p=a.getAttribute(&quot;gradientTransform&quot;);null!=p&amp;&amp;f.transform(h(p)),&quot;userSpaceOnUse&quot;===a.getAttribute(&quot;gradientUnits&quot;)&amp;&amp;f.transform(new x(-i.x,-i.y)),f.paintMesh(u.data,l.width),c.putImageData(u,0,0);const y=document.createElementNS(t,&quot;image&quot;);d(y,{width:i.width,height:i.height,x:i.x,y:i.y});let g=l.toDataURL();y.setAttributeNS(e,&quot;xlink:href&quot;,g),r.parentNode.insertBefore(y,r),r.style.fill=&quot;none&quot;;const w=document.createElementNS(t,&quot;use&quot;);w.setAttributeNS(e,&quot;xlink:href&quot;,&quot;#&quot;+o);const m=&quot;patchjs_clip&quot;+n,M=document.createElementNS(t,&quot;clipPath&quot;);M.setAttribute(&quot;id&quot;,m),M.appendChild(w),r.parentElement.insertBefore(M,r),y.setAttribute(&quot;clip-path&quot;,&quot;url(#&quot;+m+&quot;)&quot;),u=null,l=null,g=null}}if(a&amp;&amp;a[1]){const o=document.getElementById(a[1]);if(o&amp;&amp;&quot;meshgradient&quot;===o.nodeName){const i=parseFloat(r.style.strokeWidth.slice(0,-2))*(parseFloat(r.style.strokeMiterlimit)||parseFloat(r.getAttribute(&quot;stroke-miterlimit&quot;))||1),a=r.getBBox(),l=Math.trunc(a.width+i),c=Math.trunc(a.height+i),u=Math.trunc(a.x-i/2),f=Math.trunc(a.y-i/2);let p=document.createElementNS(s,&quot;canvas&quot;);d(p,{width:l,height:c});const y=p.getContext(&quot;2d&quot;);let g=y.createImageData(l,c);const w=new b(o);&quot;objectBoundingBox&quot;===o.getAttribute(&quot;gradientUnits&quot;)&amp;&amp;w.scale(new x(l,c));const m=o.getAttribute(&quot;gradientTransform&quot;);null!=m&amp;&amp;w.transform(h(m)),&quot;userSpaceOnUse&quot;===o.getAttribute(&quot;gradientUnits&quot;)&amp;&amp;w.transform(new x(-u,-f)),w.paintMesh(g.data,p.width),y.putImageData(g,0,0);const M=document.createElementNS(t,&quot;image&quot;);d(M,{width:l,height:c,x:0,y:0});let S=p.toDataURL();M.setAttributeNS(e,&quot;xlink:href&quot;,S);const k=&quot;pattern_clip&quot;+n,A=document.createElementNS(t,&quot;pattern&quot;);d(A,{id:k,patternUnits:&quot;userSpaceOnUse&quot;,width:l,height:c,x:u,y:f}),A.appendChild(M),o.parentNode.appendChild(A),r.style.stroke=&quot;url(#&quot;+k+&quot;)&quot;,g=null,p=null,S=null}}})}();
</script></svg>
